<svg width="154" height="24" viewBox="0 0 154 24" fill="none" xmlns="http://www.w3.org/2000/svg">
<path d="M22.0039 2V21.5498H16.1504V7.85352H5.44336V2H22.0039Z" fill="#0B1215"/>
<path d="M8.36592 9.26953C4.85012 9.26953 2 12.1197 2 15.6355C2 19.1513 4.85012 22.0014 8.36592 22.0014C11.8817 22.0014 14.7318 19.1513 14.7318 15.6356H8.36607L8.36592 9.26953Z" fill="#0B1215"/>
<path d="M36.39 2L30.7734 21.539H34.6523L35.8935 17.0419H41.6032L42.8134 21.539H47.0335L41.417 2H36.39ZM38.7173 6.77619H38.8414L40.7033 13.7544H36.7934L38.7173 6.77619Z" fill="#0B1215"/>
<path d="M47.3257 17.0109C47.4498 20.0813 49.653 21.8181 53.0043 21.8181C56.2935 21.8181 58.3105 20.2053 58.3105 17.5071C58.3105 15.2121 56.9762 14.0645 54.4627 13.3822L52.5078 12.855C51.6389 12.5758 51.1424 12.2967 51.1424 11.5214C51.1424 10.746 51.7631 10.3118 52.694 10.3118C54.0904 10.3118 54.711 11.1802 54.711 12.4208H58.0623C58.0313 9.59848 56.2625 7.52053 52.6629 7.52053C49.5909 7.52053 47.5739 9.31935 47.5739 11.8625C47.5739 14.2816 48.9393 15.4602 51.2355 16.0494L53.3456 16.5767C54.2765 16.8248 54.711 17.1039 54.711 17.8172C54.711 18.6236 54.0283 19.0268 53.0043 19.0268C51.701 19.0268 50.8011 18.3755 50.708 17.0109H47.3257Z" fill="#0B1215"/>
<path d="M59.1743 17.0109C59.2984 20.0813 61.5016 21.8181 64.8529 21.8181C68.1422 21.8181 70.1592 20.2053 70.1592 17.5071C70.1592 15.2121 68.8249 14.0645 66.3114 13.3822L64.3564 12.855C63.4876 12.5758 62.9911 12.2967 62.9911 11.5214C62.9911 10.746 63.6117 10.3118 64.5426 10.3118C65.939 10.3118 66.5596 11.1802 66.5596 12.4208H69.9109C69.8799 9.59848 68.1112 7.52053 64.5116 7.52053C61.4396 7.52053 59.4226 9.31935 59.4226 11.8625C59.4226 14.2816 60.7879 15.4602 63.0842 16.0494L65.1943 16.5767C66.1252 16.8248 66.5596 17.1039 66.5596 17.8172C66.5596 18.6236 65.8769 19.0268 64.8529 19.0268C63.5496 19.0268 62.6498 18.3755 62.5567 17.0109H59.1743Z" fill="#0B1215"/>
<path d="M77.3222 21.8181C80.7356 21.8181 82.6284 19.8332 82.8767 16.5767H79.3392C79.3082 17.9723 78.6565 18.7167 77.3532 18.7167C75.8327 18.7167 75.0569 17.6312 75.0569 15.4912H82.9698V14.4057C82.9698 10.1878 81.1079 7.52053 77.167 7.52053C73.5364 7.52053 71.2402 10.1878 71.2402 14.4057V14.9329C71.2402 19.1509 73.5364 21.8181 77.3222 21.8181ZM75.0569 13.2892C75.0569 11.5524 75.8327 10.622 77.167 10.622C78.5324 10.622 79.2461 11.5524 79.2461 13.2892H75.0569Z" fill="#0B1215"/>
<path d="M96.346 13.7544C96.346 12.2657 96.7494 10.777 98.3009 10.777C99.6973 10.777 100.008 11.8005 100.008 13.3202V21.539H103.98V12.0176C103.98 9.50544 102.862 7.52053 99.7904 7.52053C97.8975 7.52053 96.6563 8.41994 95.9115 9.50544C95.322 8.45096 94.2048 7.52053 92.2499 7.52053C90.6053 7.52053 89.271 8.3269 88.6814 9.47442V7.79966H84.7094V21.539H88.6814V13.7544C88.6814 12.2657 89.1158 10.777 90.6673 10.777C92.0637 10.777 92.374 11.8005 92.374 13.3202V21.539H96.346V13.7544Z" fill="#0B1215"/>
<path d="M114.757 15.3051C114.757 17.5071 113.981 18.6546 112.492 18.6546C111.033 18.6546 110.257 17.5071 110.257 15.8013V13.5373C110.257 11.8315 111.033 10.653 112.492 10.653C113.981 10.653 114.757 11.8315 114.757 14.0335V15.3051ZM110.257 19.8332C110.909 20.9807 112.088 21.8181 113.888 21.8181C117.022 21.8181 118.698 19.399 118.698 15.15V14.1886C118.698 9.93964 117.022 7.52053 113.888 7.52053C112.088 7.52053 110.909 8.35791 110.257 9.50544V2H106.285V21.539H109.823L110.257 19.8332Z" fill="#0B1215"/>
<path d="M120.437 2V21.539H124.409V2H120.437Z" fill="#0B1215"/>
<path d="M132.232 21.8181C135.645 21.8181 137.538 19.8332 137.787 16.5767H134.249C134.218 17.9723 133.566 18.7167 132.263 18.7167C130.743 18.7167 129.967 17.6312 129.967 15.4912H137.88V14.4057C137.88 10.1878 136.018 7.52053 132.077 7.52053C128.446 7.52053 126.15 10.1878 126.15 14.4057V14.9329C126.15 19.1509 128.446 21.8181 132.232 21.8181ZM129.967 13.2892C129.967 11.5524 130.743 10.622 132.077 10.622C133.442 10.622 134.156 11.5524 134.156 13.2892H129.967Z" fill="#0B1215"/>
<path d="M142.94 14.0335C142.94 11.8315 143.715 10.653 145.205 10.653C146.632 10.653 147.439 11.8315 147.439 13.5373V15.8013C147.439 17.5071 146.632 18.6546 145.205 18.6546C143.715 18.6546 142.94 17.5071 142.94 15.3051V14.0335ZM147.439 21.539H151.411V2H147.439V9.50544C146.756 8.35791 145.608 7.52053 143.808 7.52053C140.674 7.52053 138.999 9.93964 138.999 14.1886V15.15C138.999 19.399 140.674 21.8181 143.808 21.8181C145.608 21.8181 146.756 20.9807 147.439 19.8332V21.539Z" fill="#0B1215"/>
</svg>
