
<svg xmlns="http://www.w3.org/2000/svg" viewBox="0 0 460 512">
    <g stroke-width="20" fill="none" style="stroke-width:0;stroke-dasharray:none;" stroke="#FFFFFF" stroke-linejoin="arcs" >
        <path vector-effect="scaling-stroke" d="M273.01 395.6c3.36-.96 6.68-1.73 10.01-2.83 30.31-10 57.52-27.66 80.58-49.8q8.16-7.83 15.29-17.59 31.24-42.72 35.75-95.34.88-10.25.55-20.05-1.98-58.44-36.04-104.92-5.83-7.96-12.8-15.47c-37.54-40.5-89.45-61.99-144.67-59.77-80.46 3.24-150.54 59.09-171.25 136.62q-8.95 33.48-5.87 65.54 5.84 60.89 46.18 106.39 5 5.64 13.74 14.34 61.83 61.54 124.66 124.49a.71.71 0 0 0 1 0l81.95-81.9q1.25-1.25-.5-.98-19.06 3.04-38.47 2.21-2.96-.12-.11-.94" style="stroke-width:40;stroke-dasharray:none;stroke-linejoin:arcs"/>
        <path vector-effect="non-scaling-stroke" d="M224.91 44.74q-51.23 5.16-92.85 31.92-25 16.07-43.44 40.93c-3.69 4.97-6.32 10.13-9.35 15.38q-3.13 5.43-5.81 12.06-3.76 9.35-6.25 18.31-1.31 4.74-3.17 17c-1.66 10.92-.99 21.77-1.02 32.72q0 2.28.58.07 2.18-8.14 3.72-18.05.59-3.83 1.78-7.56 2.52-7.87 5.25-16.57c1.9-6.05 4.78-11.63 7.33-17.26 3.53-7.83 8.5-15.29 13.34-22.73q1.73-2.66 3.79-5.01c3.69-4.22 6.97-8.71 10.85-12.71q13.42-13.85 26.73-23.37 10.54-7.55 16.81-11.23 35.54-20.86 75.58-33.02 4.82-1.46-.21-1.17-1.82.1-3.66.29M316.12 215.2a86.5 86.5 0 0 0-86.5-86.5 86.5 86.5 0 0 0-86.5 86.5 86.5 86.5 0 0 0 86.5 86.5 86.5 86.5 0 0 0 86.5-86.5" style="stroke-width:0;stroke-dasharray:none"/>
        <path vector-effect="non-scaling-stroke" d="M207.53 212.16c-10.34 4.16-17.64 12.34-18.67 23.56-1.53 16.75 12.55 27.3 27.45 29.97 13.75 2.45 31.02 1.62 42.76-6.65 17.8-12.55 13.92-39.08-6.59-47.03a.41.41 0 0 1-.05-.73c7.03-4.11 12.02-10.74 12.6-18.78 1.05-14.4-8.27-23.94-21.57-27.31-16.58-4.2-44.87-1.52-49 20.02-2.07 10.83 3.81 20.49 13.15 25.76a.66.66 0 0 1-.08 1.19" style="stroke-width:0;stroke-dasharray:none"/>
        <path vector-effect="non-scaling-stroke" d="M233.72 179.59c-7.02-.85-17.32.31-19.63 8.09-2.4 8.13 1.82 14.29 10.07 15.8 7.8 1.44 19.95.36 21.44-9.63 1.21-8.16-4.21-13.32-11.88-14.26M248.75 236.09c.46-14.62-15.79-16.1-26.65-13.93-5.9 1.18-10.86 5.03-11.38 11.21q-.87 10.29 7.45 13.94c9.13 4 30.1 3.75 30.58-11.22" style="stroke-width:0;stroke-dasharray:none"/>
    </g>
    <path d="M316.12 215.2a86.5 86.5 0 0 0-86.5-86.5 86.5 86.5 0 0 0-86.5 86.5 86.5 86.5 0 0 0 86.5 86.5 86.5 86.5 0 0 0 86.5-86.5zM224.91 44.74q-51.23 5.16-92.85 31.92-25 16.07-43.44 40.93c-3.69 4.97-6.32 10.13-9.35 15.38q-3.13 5.43-5.81 12.06-3.76 9.35-6.25 18.31-1.31 4.74-3.17 17c-1.66 10.92-.99 21.77-1.02 32.72q0 2.28.58.07 2.18-8.14 3.72-18.05.59-3.83 1.78-7.56 2.52-7.87 5.25-16.57c1.9-6.05 4.78-11.63 7.33-17.26 3.53-7.83 8.5-15.29 13.34-22.73q1.73-2.66 3.79-5.01c3.69-4.22 6.97-8.71 10.85-12.71q13.42-13.85 26.73-23.37 10.54-7.55 16.81-11.23 35.54-20.86 75.58-33.02 4.82-1.46-.21-1.17-1.82.1-3.66.29z" style="stroke-width:0;stroke-dasharray:none"/>
    <path d="M273.01 395.6q-2.85.82.11.94 19.41.83 38.47-2.21 1.75-.27.5.98l-81.95 81.9a.71.71 0 0 1-1 0q-62.83-62.95-124.66-124.49-8.74-8.7-13.74-14.34-40.34-45.5-46.18-106.39-3.08-32.06 5.87-65.54C71.14 88.92 141.22 33.07 221.68 29.83 276.9 27.61 328.81 49.1 366.35 89.6q6.97 7.51 12.8 15.47 34.06 46.48 36.04 104.92.33 9.8-.55 20.05-4.51 52.62-35.75 95.34-7.13 9.76-15.29 17.59c-23.06 22.14-50.27 39.8-80.58 49.8-3.33 1.1-6.65 1.87-10.01 2.83z" style="stroke-width:0;stroke-dasharray:none"/>
    <path fill="#f6f6f6" d="M224.91 44.74q1.84-.19 3.66-.29 5.03-.29.21 1.17-40.04 12.16-75.58 33.02-6.27 3.68-16.81 11.23-13.31 9.52-26.73 23.37c-3.88 4-7.16 8.49-10.85 12.71q-2.06 2.35-3.79 5.01c-4.84 7.44-9.81 14.9-13.34 22.73-2.55 5.63-5.43 11.21-7.33 17.26q-2.73 8.7-5.25 16.57-1.19 3.73-1.78 7.56-1.54 9.91-3.72 18.05-.58 2.21-.58-.07c.03-10.95-.64-21.8 1.02-32.72q1.86-12.26 3.17-17 2.49-8.96 6.25-18.31 2.68-6.63 5.81-12.06c3.03-5.25 5.66-10.41 9.35-15.38q18.44-24.86 43.44-40.93 41.62-26.76 92.85-31.92ZM316.12 215.2a86.5 86.5 0 0 1-86.5 86.5 86.5 86.5 0 0 1-86.5-86.5 86.5 86.5 0 0 1 86.5-86.5 86.5 86.5 0 0 1 86.5 86.5Zm-108.59-3.04c-10.34 4.16-17.64 12.34-18.67 23.56-1.53 16.75 12.55 27.3 27.45 29.97 13.75 2.45 31.02 1.62 42.76-6.65 17.8-12.55 13.92-39.08-6.59-47.03a.41.41 0 0 1-.05-.73c7.03-4.11 12.02-10.74 12.6-18.78 1.05-14.4-8.27-23.94-21.57-27.31-16.58-4.2-44.87-1.52-49 20.02-2.07 10.83 3.81 20.49 13.15 25.76a.66.66 0 0 1-.08 1.19Z" style="stroke-width:0;stroke-dasharray:none"/>
    <path fill="#1a0c0c" d="M207.53 212.16a.66.66 0 0 0 .08-1.19c-9.34-5.27-15.22-14.93-13.15-25.76 4.13-21.54 32.42-24.22 49-20.02 13.3 3.37 22.62 12.91 21.57 27.31-.58 8.04-5.57 14.67-12.6 18.78a.41.41 0 0 0 .05.73c20.51 7.95 24.39 34.48 6.59 47.03-11.74 8.27-29.01 9.1-42.76 6.65-14.9-2.67-28.98-13.22-27.45-29.97 1.03-11.22 8.33-19.4 18.67-23.56Zm26.19-32.57c-7.02-.85-17.32.31-19.63 8.09-2.4 8.13 1.82 14.29 10.07 15.8 7.8 1.44 19.95.36 21.44-9.63 1.21-8.16-4.21-13.32-11.88-14.26Zm15.03 56.5c.46-14.62-15.79-16.1-26.65-13.93-5.9 1.18-10.86 5.03-11.38 11.21q-.87 10.29 7.45 13.94c9.13 4 30.1 3.75 30.58-11.22Z" style="stroke-width:0;stroke-dasharray:none"/>
    <path fill="#f6f6f6" d="M233.72 179.59c7.67.94 13.09 6.1 11.88 14.26-1.49 9.99-13.64 11.07-21.44 9.63-8.25-1.51-12.47-7.67-10.07-15.8 2.31-7.78 12.61-8.94 19.63-8.09ZM222.1 222.16c10.86-2.17 27.11-.69 26.65 13.93-.48 14.97-21.45 15.22-30.58 11.22q-8.32-3.65-7.45-13.94c.52-6.18 5.48-10.03 11.38-11.21Z" style="stroke-width:0;stroke-dasharray:none"/>
</svg>
