<svg fill="none" xmlns="http://www.w3.org/2000/svg" viewBox="0 0 601 76" class="min-w-[200px] sm:min-w-[140px] md:min-w-[155px]"><path d="M95.616 75.7295H.8786c78.4866-3.368 94.7374-25.229 94.7374-25.229v25.229Z" fill="url(#a)"></path><path d="M.8786 75.7295C78.334 65.2805 95.616 25.7864 95.616 25.7864v24.7141S79.3652 72.3615.8786 75.7295Z" fill="url(#b)"></path><path d="M.8786 75.7295C71.9706 56.7164 95.616.5574 95.616.5574v25.229S78.3339 65.2805.8786 75.7295Z" fill="url(#c)"></path><path d="M.8786 75.7295C71.9706 56.7164 95.616.5574 95.616.5574 79.3991 25.7864 44.9812 51.785.8785 59.0818l.0001 16.6477Z" fill="url(#d)"></path><path d="M95.616.5574S67.4574 39.5677.8785 42.434v16.6477C44.9812 51.785 79.3991 25.7864 95.616.5574Z" fill="url(#e)"></path><path d="M.8785 25.7864c64.0308 0 94.7375-25.229 94.7375-25.229S67.4574 39.5677.8785 42.434V25.7864Z" fill="url(#f)"></path><path d="M156.916 40.0176c0 1.2757 0 1.956-.085 3.5719h-30.445c.68 7.909 4.082 11.2257 11.736 11.2257 5.698 0 8.164-1.5308 10.035-6.3783l7.824 3.1467c-2.891 7.1436-9.61 10.5454-17.944 10.5454-12.417 0-20.496-8.3343-20.496-21.1759 0-12.7565 8.335-21.3459 20.071-21.3459 11.395 0 19.304 7.909 19.304 20.4104Zm-19.219-13.2668c-6.804 0-10.376 3.3167-11.226 10.4604h21.771c-.34-7.5689-3.487-10.4604-10.545-10.4604ZM182.696 40.9531l14.457 20.3254h-10.545l-6.718-10.9706-2.637-5.1026-2.551 5.0176-6.719 11.0556h-10.46l14.372-20.3254-14.117-20.4955h10.546l6.378 10.8005 2.721 5.2727 2.467-5.0175 6.548-11.0557h10.545l-14.287 20.4955ZM225.293 19.6072c11.566 0 18.795 8.5043 18.795 21.2609 0 12.7565-7.314 21.2609-19.05 21.2609-6.889 0-11.991-3.4868-14.798-9.4399V75.736h-8.674V20.4576h8.674v8.6744c2.807-6.0381 8.079-9.5248 15.053-9.5248Zm-2.636 34.6127c8.929 0 12.671-3.827 12.671-13.3518 0-9.5249-3.742-13.3519-12.671-13.3519-9.015 0-12.757 3.827-12.757 13.3519 0 9.5248 3.742 13.3518 12.757 13.3518ZM268.677 19.6072c11.906 0 21.516 8.3342 21.516 21.2609 0 12.9266-9.61 21.2609-21.516 21.2609-11.821 0-21.431-8.3343-21.431-21.2609 0-12.9267 9.61-21.2609 21.431-21.2609Zm0 34.6127c9.015 0 12.757-3.827 12.757-13.3518 0-9.5249-3.742-13.3519-12.757-13.3519s-12.671 3.827-12.671 13.3519c0 9.5248 3.656 13.3518 12.671 13.3518ZM319.441 19.6072c9.61 0 14.627 5.7829 14.627 16.5835v25.0878h-8.674V36.786c0-6.1232-3.402-9.2698-8.93-9.2698-6.888 0-11.31 5.1026-11.31 14.5425v19.2198h-8.675V20.4576h8.675v9.865c1.956-6.5483 6.293-10.7154 14.287-10.7154ZM379.375 40.0176c0 1.2757 0 1.956-.085 3.5719h-30.445c.68 7.909 4.082 11.2257 11.736 11.2257 5.698 0 8.164-1.5308 10.035-6.3783l7.824 3.1467c-2.892 7.1436-9.61 10.5454-17.944 10.5454-12.417 0-20.496-8.3343-20.496-21.1759 0-12.7565 8.334-21.3459 20.07-21.3459 11.396 0 19.305 7.909 19.305 20.4104Zm-19.22-13.2668c-6.803 0-10.375 3.3167-11.225 10.4604h21.771c-.34-7.5689-3.487-10.4604-10.546-10.4604ZM408.541 19.6072c9.61 0 14.627 5.7829 14.627 16.5835v25.0878h-8.674V36.786c0-6.1232-3.402-9.2698-8.93-9.2698-6.888 0-11.311 5.1026-11.311 14.5425v19.2198h-8.674V20.4576h8.674v9.865c1.956-6.5483 6.294-10.7154 14.288-10.7154ZM455.574 28.1966h-12.416v25.343h11.141v7.7389h-8.505c-6.803 0-11.31-4.5073-11.31-11.3108V28.1966h-8.59v-7.739h8.59V7.9562h8.674v12.5014h12.416v7.739ZM464.816 12.0383c-3.742 0-5.868-2.1261-5.953-5.868-.085-3.657 2.126-5.613 5.953-5.613 3.742 0 5.868 1.956 5.953 5.613.085 3.7419-2.041 5.868-5.953 5.868Zm-4.422 49.2402V20.4576h8.674v40.8209h-8.674ZM509.191 20.4576h8.675v40.8209h-8.675v-8.4193c-2.806 5.868-7.909 9.2698-14.712 9.2698-11.736 0-19.05-8.5044-19.05-21.2609 0-12.7566 7.229-21.2609 18.709-21.2609 6.974 0 12.247 3.4017 15.053 9.4398v-8.5894ZM496.86 54.2199c9.014 0 12.756-3.827 12.756-13.3518 0-9.5249-3.742-13.3519-12.756-13.3519-9.015 0-12.672 3.827-12.672 13.3519 0 9.5248 3.657 13.3518 12.672 13.3518ZM527.402 61.2785V1.748h8.675v59.5305h-8.675ZM549.836 61.7038c-3.827 0-6.038-2.2112-6.123-6.0381 0-3.827 2.126-5.9531 6.123-5.9531 3.827 0 6.038 2.1261 6.123 5.9531 0 3.8269-2.126 6.0381-6.123 6.0381ZM585.855 20.4576v7.739h-12.586v33.0819h-8.675V28.1966h-8.674v-7.739h8.674v-8.5044c0-6.8035 4.508-11.3108 11.311-11.3108h9.44v7.739h-12.076v12.0762h12.586ZM594.923 12.0383c-3.742 0-5.868-2.1261-5.953-5.868-.085-3.657 2.126-5.613 5.953-5.613 3.742 0 5.868 1.956 5.953 5.613.085 3.7419-2.041 5.868-5.953 5.868Zm-4.422 49.2402V20.4576h8.674v40.8209h-8.674Z" fill="#026"></path><defs><linearGradient id="a" x1="95.616" y1="75.7296" x2="48.2473" y2="75.7295" gradientUnits="userSpaceOnUse"><stop stop-color="#3E9FA3"></stop><stop offset="1" stop-color="#5050C5"></stop></linearGradient><linearGradient id="b" x1=".8785" y1="75.7295" x2="79.9798" y2="52.3663" gradientUnits="userSpaceOnUse"><stop offset=".0037" stop-color="#0A5CFF"></stop><stop offset="1" stop-color="#00308F"></stop></linearGradient><linearGradient id="c" x1="92.3682" y1="46.6952" x2="51.0932" y2="49.3463" gradientUnits="userSpaceOnUse"><stop stop-color="#4EB8BC"></stop><stop offset="1" stop-color="#0A5CFF"></stop></linearGradient><linearGradient id="d" x1=".8785" y1="75.7295" x2="79.9798" y2="52.3663" gradientUnits="userSpaceOnUse"><stop offset=".0037" stop-color="#0A5CFF"></stop><stop offset="1" stop-color="#00308F"></stop></linearGradient><linearGradient id="e" x1="95.616" y1="75.7296" x2="-2.7896" y2="70.5741" gradientUnits="userSpaceOnUse"><stop stop-color="#3838A8"></stop><stop offset=".4844" stop-color="#9947EB"></stop><stop offset="1" stop-color="#FFB800"></stop></linearGradient><linearGradient id="f" x1=".8785" y1="75.7295" x2="79.9798" y2="52.3663" gradientUnits="userSpaceOnUse"><stop offset=".0037" stop-color="#0A5CFF"></stop><stop offset="1" stop-color="#00308F"></stop></linearGradient></defs></svg>